<svg version="1.1" id="Layer_1" xmlns="http://www.w3.org/2000/svg" xmlns:xlink="http://www.w3.org/1999/xlink" x="0px" y="0px"
	 width="100%" viewBox="0 0 3000 3000" enable-background="new 0 0 3000 3000" xml:space="preserve">
<path fill="#FFFFFF" opacity="1.000000" stroke="none" 
	d="
M1320.000000,3002.000000 
	C880.000061,3002.000000 441.000153,3002.000000 2.000177,3002.000000 
	C2.000118,2002.000244 2.000118,1002.000488 2.000059,2.000579 
	C1001.999573,2.000386 2001.999146,2.000386 3001.999023,2.000193 
	C3001.999512,1001.999329 3001.999512,2001.998657 3001.999756,3001.999023 
	C2441.666748,3002.000000 1881.333374,3002.000000 1320.000000,3002.000000 
M417.830627,2086.967285 
	C417.520905,2084.196289 419.414276,2080.735352 415.013519,2078.494141 
	C414.175293,2082.312988 412.522491,2085.546875 416.081909,2089.974365 
	C415.148102,2111.068115 415.776489,2132.137939 415.606476,2153.462646 
	C433.503632,2153.462646 449.955841,2153.462646 467.152557,2153.462646 
	C457.272949,2149.382324 447.519104,2146.640869 439.934326,2139.484375 
	C425.259155,2125.637939 418.919800,2108.246338 417.830627,2086.967285 
M2613.616943,2102.031250 
	C2613.616943,2114.325928 2613.616943,2126.620605 2613.616943,2139.319580 
	C2601.629150,2144.001465 2590.024414,2148.533691 2578.445312,2153.056152 
	C2591.700684,2153.056152 2604.813232,2153.056152 2617.695312,2153.056152 
	C2617.695312,2128.933594 2617.695312,2105.460938 2617.695312,2082.355957 
	C2588.216064,2082.355957 2559.408936,2082.355957 2529.577637,2082.355957 
	C2530.566650,2087.926025 2530.853027,2092.802002 2532.343750,2097.277100 
	C2535.798096,2107.646240 2542.393066,2116.165039 2553.507812,2117.640625 
	C2563.376221,2118.950439 2573.867188,2118.386963 2583.251709,2113.906250 
	C2592.269775,2109.600098 2600.934814,2104.553467 2610.968994,2100.052734 
	C2611.787354,2100.098633 2612.605957,2100.144775 2613.616943,2102.031250 
M374.007690,1626.978027 
	C373.470642,1625.442261 372.933624,1623.906616 372.000671,1621.238647 
	C370.978668,1623.373779 370.157349,1624.274536 370.304443,1624.970581 
	C370.533936,1626.055908 371.420319,1627.002319 371.961884,1629.881348 
	C371.863251,1631.543335 371.678711,1633.205200 371.678314,1634.867188 
	C371.658966,1713.466797 371.651337,1792.066528 371.681274,1870.666138 
	C371.681854,1872.197754 372.144958,1873.729248 372.313995,1874.776001 
	C373.346771,1875.292969 373.632416,1875.561035 373.918457,1875.561401 
	C455.180573,1875.653076 536.442688,1875.726318 619.503784,1876.253418 
	C625.208862,1876.253418 630.914001,1876.253418 636.619080,1876.253418 
	C636.614380,1875.505615 636.609741,1874.757935 636.605042,1874.010132 
	C630.397644,1874.010132 624.190308,1874.010132 616.257690,1873.968872 
	C599.097290,1871.310669 581.760010,1869.470947 564.815796,1865.811646 
	C535.778809,1859.541016 508.592926,1847.963013 484.257538,1831.023071 
	C452.029297,1808.588745 427.449127,1779.191162 409.605530,1744.061646 
	C398.146820,1721.502563 389.256287,1697.998535 382.750061,1673.668457 
	C378.784576,1658.839478 376.663025,1643.517334 374.007690,1626.978027 
M2615.990234,2041.082520 
	C2616.354492,2043.101929 2616.718750,2045.121338 2617.343506,2048.584473 
	C2620.455566,2044.627563 2620.945801,2042.308594 2618.041748,2038.119507 
	C2619.753906,2004.294678 2618.937012,1926.404175 2616.827148,1918.863037 
	C2281.302979,1918.863037 1945.816406,1918.863037 1610.323730,1918.863037 
	C1610.323730,1959.448486 1610.323730,1999.472778 1610.323730,2041.438354 
	C1625.065552,2021.112671 1638.651123,2002.381226 1651.746582,1984.325439 
	C1667.154175,1984.325439 1681.616821,1984.325439 1697.401978,1984.325439 
	C1677.756348,2010.054932 1658.907104,2034.741577 1639.965698,2059.548828 
	C1660.790771,2089.374023 1681.235107,2118.654297 1702.473022,2149.070801 
	C1685.698486,2149.070801 1670.531006,2149.070801 1654.858643,2149.070801 
	C1640.515137,2127.841064 1625.973633,2106.318604 1611.432129,2084.795898 
	C1610.719360,2085.062256 1610.006714,2085.328613 1609.293945,2085.594971 
	C1609.293945,2106.730469 1609.293945,2127.865967 1609.293945,2148.944580 
	C1595.853394,2148.944580 1583.397217,2148.944580 1569.980225,2148.944580 
	C1569.980225,2071.794189 1569.980225,1995.337280 1569.980225,1918.973877 
	C1544.790161,1916.873413 996.125122,1917.791138 987.989258,1920.072876 
	C987.989258,1995.823608 987.989746,2071.785889 987.971375,2147.748047 
	C987.971313,2148.027832 987.742798,2148.343506 987.544556,2148.577637 
	C987.333679,2148.826660 987.031555,2148.998779 986.908508,2149.095215 
	C974.238770,2149.095215 961.714233,2149.095215 948.760620,2149.095215 
	C948.461548,2142.938232 948.186218,2137.270752 947.917664,2131.743164 
	C939.217285,2139.304443 931.100464,2146.358643 922.955688,2153.437012 
	C1060.234009,2153.437012 1197.676636,2153.437012 1336.095581,2153.437012 
	C1334.658691,2152.119873 1333.916992,2151.003662 1332.886230,2150.561768 
	C1321.105225,2145.510986 1315.116821,2135.731201 1310.742798,2124.352539 
	C1306.173706,2112.466064 1307.347412,2100.123779 1308.045044,2088.024414 
	C1308.464233,2080.757568 1310.985962,2073.304688 1313.985840,2066.569336 
	C1317.953003,2057.662354 1325.092896,2050.951660 1334.477417,2048.020020 
	C1348.235474,2043.722168 1362.405518,2041.328613 1376.973267,2042.314209 
	C1381.127808,2042.595337 1385.317505,2042.357178 1389.523071,2042.357178 
	C1388.779785,2026.213623 1383.769531,2018.631958 1371.515625,2016.473877 
	C1361.477539,2014.706177 1351.141846,2014.574707 1341.196899,2017.843262 
	C1333.544678,2020.358154 1325.990479,2023.171021 1317.994629,2025.991821 
	C1317.994629,2012.992676 1317.994629,2000.720825 1317.994629,1988.492065 
	C1320.647217,1987.470459 1322.982666,1986.444336 1325.396851,1985.660889 
	C1345.958740,1978.988403 1367.070801,1976.990234 1388.003784,1982.182251 
	C1404.275757,1986.217896 1417.131470,1995.759155 1422.266602,2013.045166 
	C1426.332397,2026.731445 1428.351318,2040.689453 1428.326660,2054.970703 
	C1428.278320,2082.968018 1428.312500,2110.965576 1428.312500,2138.962891 
	C1428.312500,2142.211670 1428.312500,2145.460205 1428.312500,2148.981689 
	C1414.981812,2148.981689 1402.561035,2148.981689 1389.179688,2148.981689 
	C1389.179688,2141.884277 1389.179688,2135.447754 1389.179688,2129.086182 
	C1380.196655,2137.671387 1371.722168,2145.770752 1363.651123,2153.484375 
	C1491.573730,2153.484375 1620.357422,2153.484375 1750.243164,2153.484375 
	C1747.389648,2152.034912 1745.549805,2150.925049 1743.583130,2150.128662 
	C1723.891479,2142.154053 1711.512085,2127.637207 1705.739624,2107.428955 
	C1703.859741,2100.847412 1702.427734,2094.084229 1701.444336,2087.309570 
	C1698.072144,2064.079834 1699.312744,2041.228760 1707.757568,2019.043335 
	C1718.132935,1991.786743 1744.839233,1973.412720 1778.495728,1981.708618 
	C1803.217285,1987.802246 1815.257690,2004.527344 1822.165039,2027.178223 
	C1824.323853,2034.257202 1824.901733,2041.603638 1826.629883,2048.523438 
	C1829.373901,2059.511963 1827.176636,2070.021240 1828.425781,2081.839600 
	C1798.288696,2081.839600 1769.166504,2081.839600 1740.932739,2081.839600 
	C1738.436401,2091.686768 1742.932129,2098.648682 1746.508179,2105.950928 
	C1749.843140,2112.760498 1756.253906,2116.528809 1762.543213,2117.491211 
	C1774.139404,2119.265381 1786.168701,2117.670654 1797.073975,2113.253662 
	C1805.124634,2109.993164 1812.226440,2104.389893 1820.967041,2100.052246 
	C1821.787476,2100.097656 1822.607910,2100.143311 1823.623291,2102.029053 
	C1823.623291,2114.325195 1823.623291,2126.621582 1823.623291,2139.283936 
	C1811.607788,2143.992432 1799.985962,2148.546631 1788.297363,2153.126953 
	C1936.736206,2153.126953 2084.894775,2153.126953 2233.870361,2153.126953 
	C2230.399902,2151.441895 2227.852783,2150.093750 2225.218506,2148.944336 
	C2208.452393,2141.628662 2197.604980,2128.466553 2192.211182,2111.701904 
	C2182.704834,2082.155518 2182.287842,2052.086426 2191.965576,2022.363159 
	C2196.924316,2007.133301 2206.097168,1994.433960 2220.210205,1986.599731 
	C2236.319336,1977.657349 2254.152344,1977.180298 2271.192627,1982.553589 
	C2287.948730,1987.837402 2300.420166,2000.054932 2307.393555,2016.084229 
	C2313.916016,2031.076660 2316.720459,2047.371338 2317.605713,2063.800537 
	C2318.312256,2076.912842 2315.339600,2089.581299 2312.129883,2102.150146 
	C2307.492188,2120.311768 2298.518066,2135.548096 2281.881592,2145.346680 
	C2277.464844,2147.947998 2272.981201,2150.435547 2267.868408,2153.351807 
	C2358.996094,2153.351807 2449.065674,2153.351807 2540.175537,2153.351807 
	C2538.356445,2152.002686 2537.474609,2150.928711 2536.367676,2150.589600 
	C2514.878418,2144.006592 2502.280518,2128.657227 2495.912354,2108.060303 
	C2487.629395,2081.270996 2487.648682,2053.990234 2495.344727,2027.137695 
	C2501.579102,2005.386353 2513.837402,1988.438599 2537.229736,1981.946411 
	C2563.123535,1974.760376 2592.547119,1984.067749 2605.523438,2010.206909 
	C2610.201416,2019.629761 2614.250732,2029.222412 2615.990234,2041.082520 
M1682.726562,1213.897705 
	C1682.524048,1212.886475 1682.321533,1211.875244 1682.119019,1210.864014 
	C1681.572266,1212.127686 1681.025513,1213.391357 1679.645630,1215.912476 
	C1629.548584,1372.594971 1579.451538,1529.277466 1529.238037,1686.323975 
	C1499.153442,1686.323975 1469.184814,1686.358765 1439.216431,1686.296021 
	C1432.916992,1686.282837 1425.110718,1688.090698 1420.754272,1685.076904 
	C1416.612671,1682.211548 1416.067383,1674.137085 1413.972168,1668.341553 
	C1413.749390,1667.725098 1413.817627,1667.006836 1413.615845,1666.379150 
	C1403.909546,1636.179810 1394.147461,1605.998291 1384.477661,1575.787354 
	C1368.919434,1527.179199 1353.413452,1478.554443 1337.899658,1429.932007 
	C1328.157471,1399.398071 1318.458130,1368.850464 1308.709717,1338.318481 
	C1296.465576,1299.970215 1284.205811,1261.627197 1271.881348,1223.304810 
	C1271.320190,1221.560181 1270.055908,1220.041626 1268.330811,1217.051270 
	C1268.330811,1428.567383 1268.332031,1638.192871 1268.317261,1847.818237 
	C1268.317139,1850.473755 1268.125122,1853.130005 1267.985718,1855.783936 
	C1267.970825,1856.068481 1267.748413,1856.374878 1267.548584,1856.607788 
	C1267.335571,1856.855591 1267.035034,1857.028320 1266.914917,1857.122437 
	C1212.926025,1857.122437 1159.081055,1857.122437 1104.293335,1857.122437 
	C1104.293335,1560.511108 1104.293335,1264.436646 1104.293335,968.270813 
	C1048.569580,968.270813 993.795227,968.270813 938.330994,968.270813 
	C938.330994,972.458984 938.330994,976.069946 938.330994,979.680969 
	C938.330994,1153.313599 938.347717,1326.946289 938.301819,1500.578979 
	C938.297729,1515.891479 938.239746,1531.219971 937.549561,1546.511353 
	C936.983032,1559.065308 935.529480,1571.584351 934.273621,1584.099243 
	C933.890625,1587.916016 932.604919,1591.639282 932.178955,1595.455200 
	C931.317444,1603.172974 931.215881,1610.999512 929.961426,1618.643311 
	C928.473206,1627.711304 926.132996,1636.641602 924.102539,1645.618042 
	C921.796326,1655.813843 920.009766,1666.175049 916.939392,1676.138428 
	C912.676453,1689.971924 907.925049,1703.704102 902.464844,1717.105591 
	C896.894958,1730.776123 891.582275,1744.863647 883.726807,1757.224121 
	C868.735962,1780.812012 851.492737,1802.665039 829.136353,1820.260986 
	C808.065613,1836.845093 784.992981,1849.139526 759.935303,1858.255737 
	C741.148621,1865.090698 721.655640,1868.746094 700.379150,1872.037109 
	C688.265076,1873.153687 676.151062,1874.270264 663.309082,1875.453979 
	C676.712219,1875.453979 689.442566,1875.453979 703.597107,1875.657104 
	C1314.873047,1875.663452 1926.149048,1875.669678 2537.425049,1875.675903 
	C2538.091553,1875.675903 2538.761475,1875.718506 2539.424316,1875.668091 
	C2541.978027,1875.473511 2544.529541,1875.248901 2546.954102,1875.046265 
	C2546.954102,1868.927734 2546.954102,1863.483643 2546.954102,1857.402588 
	C2354.360107,1857.402588 2162.480713,1857.402588 1970.172485,1857.402588 
	C1969.967651,1855.202515 1969.691406,1853.613281 1969.690430,1852.023804 
	C1969.666138,1809.027832 1969.724731,1766.031738 1969.589722,1723.036133 
	C1969.575317,1718.447144 1971.329712,1714.953491 1973.650757,1711.251465 
	C1996.356812,1675.036743 2019.015015,1638.791504 2041.518555,1602.450684 
	C2068.314697,1559.178101 2094.965088,1515.815430 2121.642578,1472.469482 
	C2144.554443,1435.241699 2167.308594,1397.916626 2190.328857,1360.756104 
	C2211.948242,1325.857178 2233.920166,1291.176758 2255.560547,1256.290894 
	C2277.721436,1220.566162 2299.682129,1184.717285 2321.670166,1148.885620 
	C2322.760010,1147.109497 2323.275635,1144.980957 2324.375977,1142.219604 
	C2209.850830,1142.219604 2096.539795,1142.219727 1983.228638,1142.210693 
	C1982.903076,1142.210693 1982.567505,1142.105591 1982.254761,1141.997437 
	C1981.959473,1141.895264 1981.651611,1141.767578 1981.416138,1141.571045 
	C1981.165894,1141.361938 1980.994141,1141.058838 1980.035645,1139.839600 
	C1980.035645,1083.297852 1980.035645,1025.794922 1980.035645,968.340088 
	C1934.850342,968.340088 1890.420898,968.340088 1845.637329,968.340088 
	C1845.637329,1263.965576 1845.637451,1558.912109 1845.625610,1853.858765 
	C1845.625610,1854.517456 1845.492920,1855.188110 1845.328125,1855.829224 
	C1845.254639,1856.115601 1844.959473,1856.352295 1844.744385,1856.593262 
	C1844.522827,1856.841553 1844.276245,1857.067383 1844.158081,1857.185547 
	C1790.480347,1857.185547 1736.921753,1857.185547 1682.338867,1857.185547 
	C1682.338867,1852.847168 1682.338745,1848.933960 1682.338745,1845.020874 
	C1682.338745,1639.373413 1682.344360,1433.725952 1682.303101,1228.078491 
	C1682.302246,1223.437744 1681.769287,1218.797119 1682.726562,1213.897705 
M765.670898,1077.000122 
	C765.670898,1040.783813 765.670898,1004.567444 765.670898,968.197754 
	C688.758301,968.197754 612.945679,968.197754 536.329224,968.197754 
	C536.329224,970.985229 536.324585,973.241943 536.329834,975.498657 
	C536.772522,1165.733032 537.167358,1355.967529 537.761230,1546.201416 
	C537.804077,1559.938110 537.907104,1573.939941 540.504639,1587.329224 
	C543.151306,1600.971558 545.789795,1614.689941 549.939453,1628.188843 
	C556.840210,1650.637329 567.216003,1670.253540 584.876587,1685.716797 
	C599.404053,1698.436890 617.020508,1704.003174 635.846497,1705.861694 
	C642.762024,1706.544312 649.835083,1706.035767 656.810303,1705.626831 
	C672.991577,1704.678101 688.683289,1702.127563 703.040894,1693.573730 
	C723.471863,1681.401855 737.549194,1664.235718 745.902649,1642.133911 
	C753.115540,1623.049805 757.306885,1603.336670 760.234253,1583.125854 
	C764.287598,1555.141968 765.680603,1527.100830 765.677612,1498.909302 
	C765.662903,1358.939575 765.670898,1218.969971 765.670898,1077.000122 
M2488.352295,1189.243530 
	C2485.653320,1193.296997 2482.784180,1197.248413 2480.286133,1201.421997 
	C2470.643555,1217.531982 2461.323242,1233.837891 2451.500977,1249.836304 
	C2438.447754,1271.096436 2424.948242,1292.081909 2411.812256,1313.291870 
	C2402.257812,1328.718872 2393.108398,1344.396484 2383.551514,1359.821655 
	C2370.425049,1381.008179 2356.988525,1402.002686 2343.864746,1423.190918 
	C2333.117188,1440.542847 2322.764160,1458.139526 2311.999756,1475.480835 
	C2296.791504,1499.981445 2281.293213,1524.302002 2266.053711,1548.783203 
	C2251.842529,1571.612305 2237.853516,1594.579590 2223.677979,1617.431030 
	C2214.454590,1632.299561 2204.958496,1646.999634 2195.813477,1661.915527 
	C2191.694824,1668.633057 2188.135254,1675.693115 2184.101074,1682.997192 
	C2306.093018,1682.997192 2426.583984,1682.997192 2547.677490,1682.997192 
	C2547.677490,1678.365601 2547.677490,1674.406494 2547.677490,1670.447388 
	C2547.677490,1468.130127 2547.616211,1265.812866 2547.812500,1063.495728 
	C2547.825684,1049.747681 2547.648926,1036.071899 2549.713623,1022.130676 
	C2552.311279,1004.592102 2550.339600,986.376892 2550.339600,968.163513 
	C2546.731689,968.163513 2543.942871,968.163513 2540.322510,968.163513 
	C2540.322510,971.913330 2540.322510,975.172363 2540.322510,978.431335 
	C2540.322510,1018.094849 2540.418945,1057.758911 2540.186035,1097.421021 
	C2540.160400,1101.786499 2539.111572,1106.611694 2537.042725,1110.409424 
	C2531.487793,1120.606689 2525.175781,1130.395508 2519.065674,1140.285522 
	C2509.198242,1156.257202 2499.251221,1172.179810 2488.352295,1189.243530 
M1340.305908,1022.975403 
	C1340.958984,1024.750488 1341.696533,1026.499634 1342.252441,1028.304565 
	C1352.376953,1061.180542 1362.390137,1094.091064 1372.613647,1126.936157 
	C1381.704224,1156.141235 1390.919312,1185.308594 1400.269043,1214.431763 
	C1410.477417,1246.229736 1420.993164,1277.928955 1431.212769,1309.723511 
	C1443.646118,1348.405029 1455.879517,1387.150879 1468.285889,1425.841064 
	C1469.816650,1430.614868 1471.879028,1435.218140 1474.441162,1441.824463 
	C1525.502319,1282.529053 1575.817505,1125.561157 1626.249268,968.229370 
	C1525.098267,968.229370 1424.645874,968.229370 1322.695557,968.229370 
	C1328.742676,986.548767 1334.477905,1003.922974 1340.305908,1022.975403 
M701.000122,1918.304321 
	C606.111206,1918.304321 511.222260,1918.304321 416.197601,1918.304321 
	C416.197601,1922.180908 416.197601,1924.970459 416.197601,1928.772705 
	C430.201294,1928.772705 443.682343,1928.772705 457.641357,1928.772705 
	C457.641357,1932.422607 457.641388,1935.053223 457.641388,1937.683838 
	C457.641388,1981.012695 457.502411,2024.342407 457.757690,2067.669678 
	C457.809265,2076.418701 458.369202,2085.403076 460.464203,2093.839600 
	C462.957397,2103.879150 473.259521,2112.346191 480.865631,2111.863037 
	C494.982727,2110.966064 501.739136,2107.886719 506.697815,2093.940918 
	C511.168976,2081.365723 511.706635,2068.131348 511.697815,2054.890869 
	C511.672089,2016.228271 511.688690,1977.565552 511.688690,1938.902954 
	C511.688690,1935.670532 511.688690,1932.438110 511.688690,1929.026489 
	C526.142212,1929.026489 539.578613,1929.026489 553.299866,1929.026489 
	C553.439758,1931.296753 553.626465,1932.920288 553.627075,1934.543823 
	C553.643433,1978.539307 554.231995,2022.547241 553.301575,2066.523193 
	C552.999878,2080.781006 550.017456,2095.343018 545.931274,2109.072754 
	C540.210754,2128.293457 528.203186,2143.091064 508.502167,2150.242432 
	C506.644165,2150.916748 504.798706,2151.625488 502.947418,2152.318359 
	C503.082306,2152.729492 503.217224,2153.140625 503.352112,2153.551758 
	C540.000427,2153.551758 576.648682,2153.551758 615.250183,2153.551758 
	C604.208618,2149.845703 594.877014,2146.713623 586.024536,2143.742432 
	C586.024536,2129.897461 586.024536,2117.356201 586.024536,2104.695312 
	C587.870911,2105.147461 589.673523,2105.103516 590.830078,2105.946289 
	C605.164062,2116.390137 621.446533,2118.849365 638.577820,2117.707764 
	C647.737305,2117.097656 655.157288,2109.892090 655.647949,2101.541992 
	C656.050964,2094.683105 651.893677,2089.959961 642.089600,2087.393066 
	C633.847168,2085.235352 625.216980,2084.445557 617.101746,2081.938721 
	C601.732178,2077.191162 588.996582,2069.505127 585.497925,2051.719971 
	C582.973022,2038.885010 582.946777,2026.232910 585.203674,2013.483276 
	C585.705017,2010.651489 586.550964,2007.828125 587.631958,2005.160278 
	C595.010071,1986.950195 610.051514,1980.671753 628.187073,1979.748291 
	C645.452271,1978.869263 662.084229,1982.054688 678.464539,1987.605957 
	C682.806824,1989.077759 684.349731,1990.710938 684.325500,1994.819214 
	C684.272339,2003.817871 684.358765,2012.817749 684.274902,2021.815918 
	C684.255493,2023.898438 683.781860,2025.976685 683.434265,2028.708984 
	C680.391968,2027.386230 678.327148,2026.494995 676.267456,2025.592041 
	C662.016541,2019.344727 647.701111,2013.623047 631.545166,2015.920288 
	C623.032532,2017.130737 619.170837,2019.913086 618.406738,2026.413452 
	C617.172974,2036.908569 619.408752,2040.927734 628.267151,2043.915405 
	C630.669800,2044.725830 633.148560,2045.907593 635.589844,2045.901489 
	C645.415466,2045.876709 654.522827,2049.298584 663.559937,2052.172852 
	C674.469666,2055.643066 683.638062,2062.165039 687.338562,2073.989746 
	C691.311584,2086.685791 692.729370,2099.055176 690.626038,2112.846191 
	C687.661438,2132.284424 677.165344,2143.230225 660.383667,2150.329346 
	C658.720581,2151.032715 657.223389,2152.128418 655.173279,2153.318359 
	C691.018250,2153.318359 726.065002,2153.318359 761.751038,2153.318359 
	C759.777344,2152.188721 758.535522,2151.170898 757.113281,2150.708984 
	C730.967346,2142.216309 718.774292,2122.130371 714.204285,2096.913818 
	C711.866211,2084.012207 712.170532,2070.592285 711.753052,2057.391846 
	C711.186096,2039.464600 715.955688,2022.754761 725.139954,2007.460693 
	C731.196411,1997.374878 739.324707,1988.757080 750.428589,1984.530518 
	C763.560486,1979.532104 777.050354,1977.552979 791.319824,1981.789795 
	C807.022766,1986.452148 818.403931,1995.710083 826.132568,2009.687256 
	C831.539978,2019.466675 834.306213,2030.138062 837.137878,2041.016235 
	C840.647522,2054.499512 839.584045,2067.594971 840.178650,2082.008789 
	C810.013184,2082.008789 780.909973,2082.008789 751.458984,2082.008789 
	C751.870361,2086.402832 752.150818,2089.707520 752.493835,2093.005859 
	C753.563782,2103.292969 762.614258,2115.291260 772.456909,2117.072754 
	C779.425476,2118.333984 787.024536,2118.097168 794.018188,2116.792480 
	C805.955933,2114.565674 816.704102,2108.962402 826.768799,2102.115479 
	C828.652405,2100.833984 831.036804,2100.289062 834.311279,2098.943359 
	C834.311279,2109.944824 834.319885,2119.245361 834.309082,2128.545654 
	C834.296753,2139.112061 833.049133,2140.661865 822.412231,2144.409424 
	C814.781982,2147.097412 807.226746,2149.998535 798.469910,2153.236816 
	C832.364075,2153.236816 864.776245,2153.236816 897.519836,2153.236816 
	C892.380005,2149.438477 887.247498,2146.418945 883.070190,2142.405273 
	C872.801147,2132.538818 867.835449,2119.645508 863.857239,2106.316162 
	C857.855469,2086.207031 858.972229,2065.544434 860.320435,2045.125854 
	C861.288879,2030.459473 865.868225,2016.286011 873.333923,2003.281616 
	C878.872437,1993.634155 885.645203,1985.414795 896.616089,1981.765381 
	C912.427612,1976.505859 925.886353,1980.986450 937.618164,1992.046509 
	C940.842346,1995.085938 943.870789,1998.333130 947.606323,2002.108887 
	C947.606323,1973.500122 947.606323,1946.132446 947.606323,1918.304321 
	C865.569946,1918.304321 784.285034,1918.304321 701.000122,1918.304321 
M2250.700439,2115.633301 
	C2263.197266,2114.360840 2269.854736,2106.122803 2272.883301,2095.184326 
	C2277.334717,2079.105469 2277.889160,2062.631592 2274.709717,2046.132080 
	C2273.077637,2037.663940 2271.041748,2029.442139 2264.280029,2023.298584 
	C2255.284912,2015.125488 2241.281494,2016.693115 2234.412354,2026.397949 
	C2228.875977,2034.219849 2226.605469,2042.903687 2226.439697,2052.262695 
	C2226.280762,2061.232910 2226.852539,2070.246338 2226.161133,2079.167969 
	C2225.478516,2087.979736 2228.810059,2095.526855 2232.124512,2103.087646 
	C2235.298340,2110.328369 2241.012451,2114.904541 2250.700439,2115.633301 
M948.352539,2053.507080 
	C947.434265,2044.891724 945.837646,2036.500610 941.324463,2028.877563 
	C936.565308,2020.838745 928.963684,2017.265259 920.464966,2018.634888 
	C912.793579,2019.870972 907.062378,2024.773560 904.067688,2033.172119 
	C899.316589,2046.496826 899.984131,2060.024902 899.929626,2073.667236 
	C899.886414,2084.484131 901.240601,2094.880859 906.723633,2104.432861 
	C913.755188,2116.681885 931.440430,2117.957031 939.703369,2106.435059 
	C942.524902,2102.500488 944.293335,2097.654053 945.836548,2092.990479 
	C949.895752,2080.722900 947.967957,2067.962891 948.352539,2053.507080 
M1356.700439,2076.375488 
	C1345.545654,2084.149658 1342.886108,2098.376709 1349.684692,2110.461182 
	C1351.981445,2114.543701 1354.854126,2117.402344 1359.129517,2117.810059 
	C1365.868164,2118.452148 1372.018311,2116.953369 1377.313110,2111.809082 
	C1387.389648,2102.018311 1389.255981,2089.799316 1389.748169,2076.333252 
	C1378.861084,2076.333252 1368.653687,2076.333252 1356.700439,2076.375488 
M759.154236,2023.981567 
	C753.651672,2030.644043 751.939697,2038.730957 750.473206,2047.266602 
	C766.647156,2047.266602 782.761353,2047.266602 799.032349,2047.266602 
	C800.990173,2040.671387 797.808350,2035.417114 796.002869,2029.964355 
	C793.678284,2022.943604 788.871826,2017.481323 781.855652,2016.124634 
	C773.991821,2014.604126 765.466492,2014.367310 759.154236,2023.981567 
M2541.405762,2019.741821 
	C2535.310791,2027.870850 2528.943848,2035.904053 2530.788086,2047.273438 
	C2546.954834,2047.273438 2562.162109,2047.273438 2578.878662,2047.273438 
	C2577.619873,2040.859009 2577.275146,2034.870239 2575.222168,2029.539307 
	C2571.174805,2019.029297 2562.938965,2014.516113 2551.661621,2015.828247 
	C2548.530762,2016.192505 2545.522217,2017.606323 2541.405762,2019.741821 
M1743.167725,2032.515381 
	C1741.811035,2037.286011 1738.479614,2041.847656 1741.448120,2047.359619 
	C1756.802856,2047.359619 1771.978638,2047.359619 1787.547607,2047.359619 
	C1789.072266,2036.935181 1785.473755,2028.274902 1779.154053,2021.042358 
	C1776.640869,2018.166504 1771.883789,2016.288818 1767.926147,2015.816040 
	C1755.383301,2014.317871 1750.239136,2018.033813 1743.167725,2032.515381 
z"/>
<path fill="#010101" opacity="1.000000" stroke="none" 
	d="
M702.119751,1872.359619 
	C721.655640,1868.746094 741.148621,1865.090698 759.935303,1858.255737 
	C784.992981,1849.139526 808.065613,1836.845093 829.136353,1820.260986 
	C851.492737,1802.665039 868.735962,1780.812012 883.726807,1757.224121 
	C891.582275,1744.863647 896.894958,1730.776123 902.464844,1717.105591 
	C907.925049,1703.704102 912.676453,1689.971924 916.939392,1676.138428 
	C920.009766,1666.175049 921.796326,1655.813843 924.102539,1645.618042 
	C926.132996,1636.641602 928.473206,1627.711304 929.961426,1618.643311 
	C931.215881,1610.999512 931.317444,1603.172974 932.178955,1595.455200 
	C932.604919,1591.639282 933.890625,1587.916016 934.273621,1584.099243 
	C935.529480,1571.584351 936.983032,1559.065308 937.549561,1546.511353 
	C938.239746,1531.219971 938.297729,1515.891479 938.301819,1500.578979 
	C938.347717,1326.946289 938.330994,1153.313599 938.330994,979.680969 
	C938.330994,976.069946 938.330994,972.458984 938.330994,968.270813 
	C993.795227,968.270813 1048.569580,968.270813 1104.293335,968.270813 
	C1104.293335,1264.436646 1104.293335,1560.511108 1104.293335,1857.122437 
	C1159.081055,1857.122437 1212.926025,1857.122437 1266.914917,1857.122437 
	C1267.035034,1857.028320 1267.335571,1856.855591 1267.548584,1856.607788 
	C1267.748413,1856.374878 1267.970825,1856.068481 1267.985718,1855.783936 
	C1268.125122,1853.130005 1268.317139,1850.473755 1268.317261,1847.818237 
	C1268.332031,1638.192871 1268.330811,1428.567383 1268.330811,1217.051270 
	C1270.055908,1220.041626 1271.320190,1221.560181 1271.881348,1223.304810 
	C1284.205811,1261.627197 1296.465576,1299.970215 1308.709717,1338.318481 
	C1318.458130,1368.850464 1328.157471,1399.398071 1337.899658,1429.932007 
	C1353.413452,1478.554443 1368.919434,1527.179199 1384.477661,1575.787354 
	C1394.147461,1605.998291 1403.909546,1636.179810 1413.615845,1666.379150 
	C1413.817627,1667.006836 1413.749390,1667.725098 1413.972168,1668.341553 
	C1416.067383,1674.137085 1416.612671,1682.211548 1420.754272,1685.076904 
	C1425.110718,1688.090698 1432.916992,1686.282837 1439.216431,1686.296021 
	C1469.184814,1686.358765 1499.153442,1686.323975 1529.238037,1686.323975 
	C1579.451538,1529.277466 1629.548584,1372.594971 1680.400024,1215.333374 
	C1681.154419,1214.754272 1681.484619,1214.156372 1681.484619,1214.156372 
	C1681.769287,1218.797119 1682.302246,1223.437744 1682.303101,1228.078491 
	C1682.344360,1433.725952 1682.338745,1639.373413 1682.338745,1845.020874 
	C1682.338745,1848.933960 1682.338867,1852.847168 1682.338867,1857.185547 
	C1736.921753,1857.185547 1790.480347,1857.185547 1844.158081,1857.185547 
	C1844.276245,1857.067383 1844.522827,1856.841553 1844.744385,1856.593262 
	C1844.959473,1856.352295 1845.254639,1856.115601 1845.328125,1855.829224 
	C1845.492920,1855.188110 1845.625610,1854.517456 1845.625610,1853.858765 
	C1845.637451,1558.912109 1845.637329,1263.965576 1845.637329,968.340088 
	C1890.420898,968.340088 1934.850342,968.340088 1980.035645,968.340088 
	C1980.035645,1025.794922 1980.035645,1083.297852 1980.035645,1139.839600 
	C1980.994141,1141.058838 1981.165894,1141.361938 1981.416138,1141.571045 
	C1981.651611,1141.767578 1981.959473,1141.895264 1982.254761,1141.997437 
	C1982.567505,1142.105591 1982.903076,1142.210693 1983.228638,1142.210693 
	C2096.539795,1142.219727 2209.850830,1142.219604 2324.375977,1142.219604 
	C2323.275635,1144.980957 2322.760010,1147.109497 2321.670166,1148.885620 
	C2299.682129,1184.717285 2277.721436,1220.566162 2255.560547,1256.290894 
	C2233.920166,1291.176758 2211.948242,1325.857178 2190.328857,1360.756104 
	C2167.308594,1397.916626 2144.554443,1435.241699 2121.642578,1472.469482 
	C2094.965088,1515.815430 2068.314697,1559.178101 2041.518555,1602.450684 
	C2019.015015,1638.791504 1996.356812,1675.036743 1973.650757,1711.251465 
	C1971.329712,1714.953491 1969.575317,1718.447144 1969.589722,1723.036133 
	C1969.724731,1766.031738 1969.666138,1809.027832 1969.690430,1852.023804 
	C1969.691406,1853.613281 1969.967651,1855.202515 1970.172485,1857.402588 
	C2162.480713,1857.402588 2354.360107,1857.402588 2546.954102,1857.402588 
	C2546.954102,1863.483643 2546.954102,1868.927734 2546.954102,1875.046265 
	C2544.529541,1875.248901 2541.978027,1875.473511 2539.424316,1875.668091 
	C2538.761475,1875.718506 2538.091553,1875.675903 2537.425049,1875.675903 
	C1926.149048,1875.669678 1314.873047,1875.663452 702.971069,1875.042236 
	C702.270020,1873.738159 702.194885,1873.048950 702.119751,1872.359619 
z"/>
<path fill="#040404" opacity="1.000000" stroke="none" 
	d="
M1819.750854,2099.830078 
	C1812.226440,2104.389893 1805.124634,2109.993164 1797.073975,2113.253662 
	C1786.168701,2117.670654 1774.139404,2119.265381 1762.543213,2117.491211 
	C1756.253906,2116.528809 1749.843140,2112.760498 1746.508179,2105.950928 
	C1742.932129,2098.648682 1738.436401,2091.686768 1740.932739,2081.839600 
	C1769.166504,2081.839600 1798.288696,2081.839600 1828.425781,2081.839600 
	C1827.176636,2070.021240 1829.373901,2059.511963 1826.629883,2048.523438 
	C1824.901733,2041.603638 1824.323853,2034.257202 1822.165039,2027.178223 
	C1815.257690,2004.527344 1803.217285,1987.802246 1778.495728,1981.708618 
	C1744.839233,1973.412720 1718.132935,1991.786743 1707.757568,2019.043335 
	C1699.312744,2041.228760 1698.072144,2064.079834 1701.444336,2087.309570 
	C1702.427734,2094.084229 1703.859741,2100.847412 1705.739624,2107.428955 
	C1711.512085,2127.637207 1723.891479,2142.154053 1743.583130,2150.128662 
	C1745.549805,2150.925049 1747.389648,2152.034912 1750.243164,2153.484375 
	C1620.357422,2153.484375 1491.573730,2153.484375 1363.651123,2153.484375 
	C1371.722168,2145.770752 1380.196655,2137.671387 1389.179688,2129.086182 
	C1389.179688,2135.447754 1389.179688,2141.884277 1389.179688,2148.981689 
	C1402.561035,2148.981689 1414.981812,2148.981689 1428.312500,2148.981689 
	C1428.312500,2145.460205 1428.312500,2142.211670 1428.312500,2138.962891 
	C1428.312500,2110.965576 1428.278320,2082.968018 1428.326660,2054.970703 
	C1428.351318,2040.689453 1426.332397,2026.731445 1422.266602,2013.045166 
	C1417.131470,1995.759155 1404.275757,1986.217896 1388.003784,1982.182251 
	C1367.070801,1976.990234 1345.958740,1978.988403 1325.396851,1985.660889 
	C1322.982666,1986.444336 1320.647217,1987.470459 1317.994629,1988.492065 
	C1317.994629,2000.720825 1317.994629,2012.992676 1317.994629,2025.991821 
	C1325.990479,2023.171021 1333.544678,2020.358154 1341.196899,2017.843262 
	C1351.141846,2014.574707 1361.477539,2014.706177 1371.515625,2016.473877 
	C1383.769531,2018.631958 1388.779785,2026.213623 1389.523071,2042.357178 
	C1385.317505,2042.357178 1381.127808,2042.595337 1376.973267,2042.314209 
	C1362.405518,2041.328613 1348.235474,2043.722168 1334.477417,2048.020020 
	C1325.092896,2050.951660 1317.953003,2057.662354 1313.985840,2066.569336 
	C1310.985962,2073.304688 1308.464233,2080.757568 1308.045044,2088.024414 
	C1307.347412,2100.123779 1306.173706,2112.466064 1310.742798,2124.352539 
	C1315.116821,2135.731201 1321.105225,2145.510986 1332.886230,2150.561768 
	C1333.916992,2151.003662 1334.658691,2152.119873 1336.095581,2153.437012 
	C1197.676636,2153.437012 1060.234009,2153.437012 922.955688,2153.437012 
	C931.100464,2146.358643 939.217285,2139.304443 947.917664,2131.743164 
	C948.186218,2137.270752 948.461548,2142.938232 948.760620,2149.095215 
	C961.714233,2149.095215 974.238770,2149.095215 986.908508,2149.095215 
	C987.031555,2148.998779 987.333679,2148.826660 987.544556,2148.577637 
	C987.742798,2148.343506 987.971313,2148.027832 987.971375,2147.748047 
	C987.989746,2071.785889 987.989258,1995.823608 987.989258,1920.072876 
	C996.125122,1917.791138 1544.790161,1916.873413 1569.980225,1918.973877 
	C1569.980225,1995.337280 1569.980225,2071.794189 1569.980225,2148.944580 
	C1583.397217,2148.944580 1595.853394,2148.944580 1609.293945,2148.944580 
	C1609.293945,2127.865967 1609.293945,2106.730469 1609.293945,2085.594971 
	C1610.006714,2085.328613 1610.719360,2085.062256 1611.432129,2084.795898 
	C1625.973633,2106.318604 1640.515137,2127.841064 1654.858643,2149.070801 
	C1670.531006,2149.070801 1685.698486,2149.070801 1702.473022,2149.070801 
	C1681.235107,2118.654297 1660.790771,2089.374023 1639.965698,2059.548828 
	C1658.907104,2034.741577 1677.756348,2010.054932 1697.401978,1984.325439 
	C1681.616821,1984.325439 1667.154175,1984.325439 1651.746582,1984.325439 
	C1638.651123,2002.381226 1625.065552,2021.112671 1610.323730,2041.438354 
	C1610.323730,1999.472778 1610.323730,1959.448486 1610.323730,1918.863037 
	C1945.816406,1918.863037 2281.302979,1918.863037 2616.827148,1918.863037 
	C2618.937012,1926.404175 2619.753906,2004.294678 2617.603516,2038.882568 
	C2617.165039,2039.645630 2616.285156,2039.584595 2616.285156,2039.584595 
	C2614.250732,2029.222412 2610.201416,2019.629761 2605.523438,2010.206909 
	C2592.547119,1984.067749 2563.123535,1974.760376 2537.229736,1981.946411 
	C2513.837402,1988.438599 2501.579102,2005.386353 2495.344727,2027.137695 
	C2487.648682,2053.990234 2487.629395,2081.270996 2495.912354,2108.060303 
	C2502.280518,2128.657227 2514.878418,2144.006592 2536.367676,2150.589600 
	C2537.474609,2150.928711 2538.356445,2152.002686 2540.175537,2153.351807 
	C2449.065674,2153.351807 2358.996094,2153.351807 2267.868408,2153.351807 
	C2272.981201,2150.435547 2277.464844,2147.947998 2281.881592,2145.346680 
	C2298.518066,2135.548096 2307.492188,2120.311768 2312.129883,2102.150146 
	C2315.339600,2089.581299 2318.312256,2076.912842 2317.605713,2063.800537 
	C2316.720459,2047.371338 2313.916016,2031.076660 2307.393555,2016.084229 
	C2300.420166,2000.054932 2287.948730,1987.837402 2271.192627,1982.553589 
	C2254.152344,1977.180298 2236.319336,1977.657349 2220.210205,1986.599731 
	C2206.097168,1994.433960 2196.924316,2007.133301 2191.965576,2022.363159 
	C2182.287842,2052.086426 2182.704834,2082.155518 2192.211182,2111.701904 
	C2197.604980,2128.466553 2208.452393,2141.628662 2225.218506,2148.944336 
	C2227.852783,2150.093750 2230.399902,2151.441895 2233.870361,2153.126953 
	C2084.894775,2153.126953 1936.736206,2153.126953 1788.297363,2153.126953 
	C1799.985962,2148.546631 1811.607788,2143.992432 1823.623291,2139.283936 
	C1823.623291,2126.621582 1823.623291,2114.325195 1823.683594,2100.471191 
	C1822.412964,2099.218994 1821.081909,2099.524414 1819.750854,2099.830078 
M1204.433228,2103.739258 
	C1215.670410,2067.511963 1226.907715,2031.284668 1238.145020,1995.057495 
	C1238.831543,1995.204590 1239.518188,1995.351807 1240.204834,1995.499023 
	C1240.204834,2046.656494 1240.204834,2097.813965 1240.204834,2149.198730 
	C1253.061768,2149.198730 1265.228882,2149.198730 1277.324219,2149.198730 
	C1279.278687,2136.020752 1278.691162,1935.614868 1276.758057,1928.792969 
	C1259.877441,1928.792969 1243.010986,1928.792969 1225.796143,1928.792969 
	C1213.480957,1966.367310 1203.075562,2004.239502 1188.931763,2041.053833 
	C1177.390503,2003.490234 1165.849243,1965.926636 1154.438110,1928.786377 
	C1136.419922,1928.786377 1119.528687,1928.786377 1102.713867,1928.786377 
	C1100.787109,1941.256104 1101.307251,2142.248535 1103.188843,2149.121582 
	C1115.736816,2149.121582 1128.251831,2149.121582 1141.655273,2149.121582 
	C1141.655273,2098.901367 1141.655273,2049.208008 1141.655273,1999.514526 
	C1142.239502,1999.427979 1142.823608,1999.341431 1143.407837,1999.254883 
	C1154.459839,2035.204468 1165.511841,2071.154053 1176.699219,2107.543945 
	C1185.055786,2107.543945 1193.015869,2107.622070 1200.970581,2107.447021 
	C1201.988159,2107.424561 1202.976807,2106.084473 1204.433228,2103.739258 
M2140.820312,2003.802490 
	C2147.418945,1992.651489 2154.042725,1981.515259 2160.595215,1970.337036 
	C2161.928223,1968.063232 2163.941650,1965.661133 2164.016846,1963.267090 
	C2164.376465,1951.782959 2164.178467,1940.281128 2164.178467,1928.820801 
	C2119.022461,1928.820801 2075.183105,1928.820801 2030.840698,1928.820801 
	C2030.840698,1943.099487 2030.840698,1956.891602 2030.840698,1971.897461 
	C2057.949463,1971.897461 2084.589844,1971.897461 2112.321533,1971.897461 
	C2109.418701,1976.999878 2107.366211,1980.746582 2105.187012,1984.417969 
	C2080.427246,2026.128906 2055.641602,2067.824707 2030.894897,2109.543213 
	C2029.723877,2111.517090 2028.027588,2113.645020 2027.972900,2115.737793 
	C2027.681641,2126.888916 2027.835693,2138.051270 2027.835693,2149.178711 
	C2074.980469,2149.178711 2120.819092,2149.178711 2167.107422,2149.178711 
	C2167.107422,2134.578125 2167.107422,2120.467041 2167.107422,2105.490967 
	C2138.452393,2105.490967 2110.343018,2105.490967 2080.302246,2105.490967 
	C2100.829834,2071.030029 2120.471680,2038.055786 2140.820312,2003.802490 
M2387.778076,2037.302734 
	C2388.604736,2035.491089 2389.285889,2033.594849 2390.281982,2031.881958 
	C2395.413574,2023.057983 2402.889160,2018.882202 2410.566406,2020.435181 
	C2417.955566,2021.929810 2423.510986,2029.230591 2424.222412,2039.218262 
	C2424.952148,2049.459229 2425.522217,2059.731201 2425.608643,2069.994141 
	C2425.808350,2093.631104 2425.649902,2117.270996 2425.700928,2140.909668 
	C2425.707031,2143.729980 2426.110352,2146.549316 2426.304199,2149.043457 
	C2439.479004,2149.043457 2451.648193,2149.043457 2463.636963,2149.043457 
	C2463.954834,2147.790527 2464.257568,2147.152588 2464.258301,2146.513916 
	C2464.296875,2109.558105 2464.529541,2072.600342 2464.205322,2035.647705 
	C2464.094238,2022.983521 2461.466064,2010.557617 2455.354248,1999.245239 
	C2449.914551,1989.176636 2442.123779,1981.547852 2430.312256,1979.909424 
	C2413.533447,1977.581909 2399.483154,1982.537109 2389.387207,1996.827759 
	C2388.081055,1998.676514 2386.238770,2000.146362 2383.250244,2003.231567 
	C2383.250244,1995.447388 2383.250244,1989.905884 2383.250244,1984.264404 
	C2369.759277,1984.264404 2356.973145,1984.264404 2344.330078,1984.264404 
	C2344.330078,2039.582886 2344.330078,2094.313232 2344.330078,2149.658936 
	C2351.245117,2149.658936 2357.519531,2149.678223 2363.793701,2149.653564 
	C2370.290283,2149.627930 2376.786865,2149.559570 2382.960205,2149.512451 
	C2383.371826,2147.448730 2383.612793,2146.801758 2383.613525,2146.154785 
	C2383.642090,2117.854980 2383.396240,2089.551270 2383.828613,2061.258057 
	C2383.943115,2053.770752 2386.136963,2046.315308 2387.778076,2037.302734 
M1860.328735,2068.999512 
	C1860.328735,2079.991455 1859.762573,2091.021973 1860.510986,2101.962646 
	C1861.092651,2110.465088 1862.662476,2119.038086 1864.962769,2127.251953 
	C1868.201782,2138.817871 1876.604492,2145.589111 1888.253662,2148.077148 
	C1903.668945,2151.369141 1919.200195,2149.060791 1935.159912,2149.588135 
	C1935.159912,2136.207764 1935.159912,2123.749023 1935.159912,2110.320801 
	C1927.102051,2110.320801 1919.516357,2110.546875 1911.950195,2110.260254 
	C1903.658325,2109.945801 1900.640625,2106.908936 1899.799194,2098.779053 
	C1899.594360,2096.800049 1899.676270,2094.788330 1899.675659,2092.791504 
	C1899.668335,2071.807129 1899.655518,2050.822510 1899.691650,2029.838013 
	C1899.696045,2027.291504 1899.980103,2024.745483 1900.175537,2021.522949 
	C1912.975952,2021.522949 1925.169434,2021.522949 1937.840088,2021.522949 
	C1937.840088,2008.685059 1937.840088,1996.569458 1937.840088,1983.406006 
	C1924.994873,1983.406006 1912.528320,1983.406006 1899.193726,1983.406006 
	C1899.193726,1967.200928 1899.193726,1952.031006 1899.193726,1937.043701 
	C1885.785767,1937.043701 1873.322632,1937.043701 1859.911865,1937.043701 
	C1859.911865,1952.882690 1859.911865,1968.022583 1859.911865,1983.846680 
	C1853.438110,1983.846680 1847.909058,1983.846680 1842.237305,1983.846680 
	C1842.237305,1996.700439 1842.237305,2008.816162 1842.237305,2021.639648 
	C1848.309814,2021.639648 1853.851196,2021.639648 1860.328735,2021.639648 
	C1860.328735,2037.222778 1860.328735,2052.111328 1860.328735,2068.999512 
M1502.320312,2136.809570 
	C1502.320312,2113.840088 1501.872559,2090.857178 1502.547974,2067.907471 
	C1502.806396,2059.129883 1504.769043,2050.148926 1507.476807,2041.751221 
	C1512.522949,2026.102295 1527.746948,2017.891113 1544.965332,2025.722656 
	C1546.998657,2026.647583 1549.094238,2027.436279 1551.661133,2028.494263 
	C1551.661133,2012.021484 1551.661133,1996.311890 1551.661133,1980.711060 
	C1528.902588,1977.316772 1524.914307,1979.223755 1502.221924,2004.488647 
	C1502.221924,1997.156860 1502.221924,1990.741821 1502.221924,1984.330933 
	C1488.917603,1984.330933 1476.493286,1984.330933 1464.399292,1984.330933 
	C1464.399292,2039.697632 1464.399292,2094.417480 1464.399292,2149.106445 
	C1477.287964,2149.106445 1489.450317,2149.106445 1502.320312,2149.106445 
	C1502.320312,2145.294922 1502.320312,2142.023438 1502.320312,2136.809570 
z"/>
<path fill="#010101" opacity="1.000000" stroke="none" 
	d="
M765.670898,1078.000244 
	C765.670898,1218.969971 765.662903,1358.939575 765.677612,1498.909302 
	C765.680603,1527.100830 764.287598,1555.141968 760.234253,1583.125854 
	C757.306885,1603.336670 753.115540,1623.049805 745.902649,1642.133911 
	C737.549194,1664.235718 723.471863,1681.401855 703.040894,1693.573730 
	C688.683289,1702.127563 672.991577,1704.678101 656.810303,1705.626831 
	C649.835083,1706.035767 642.762024,1706.544312 635.846497,1705.861694 
	C617.020508,1704.003174 599.404053,1698.436890 584.876587,1685.716797 
	C567.216003,1670.253540 556.840210,1650.637329 549.939453,1628.188843 
	C545.789795,1614.689941 543.151306,1600.971558 540.504639,1587.329224 
	C537.907104,1573.939941 537.804077,1559.938110 537.761230,1546.201416 
	C537.167358,1355.967529 536.772522,1165.733032 536.329834,975.498657 
	C536.324585,973.241943 536.329224,970.985229 536.329224,968.197754 
	C612.945679,968.197754 688.758301,968.197754 765.670898,968.197754 
	C765.670898,1004.567444 765.670898,1040.783813 765.670898,1078.000244 
z"/>
<path fill="#020202" opacity="1.000000" stroke="none" 
	d="
M2488.845215,1188.683350 
	C2499.251221,1172.179810 2509.198242,1156.257202 2519.065674,1140.285522 
	C2525.175781,1130.395508 2531.487793,1120.606689 2537.042725,1110.409424 
	C2539.111572,1106.611694 2540.160400,1101.786499 2540.186035,1097.421021 
	C2540.418945,1057.758911 2540.322510,1018.094849 2540.322510,978.431335 
	C2540.322510,975.172363 2540.322510,971.913330 2540.322510,968.163513 
	C2543.942871,968.163513 2546.731689,968.163513 2550.339600,968.163513 
	C2550.339600,986.376892 2552.311279,1004.592102 2549.713623,1022.130676 
	C2547.648926,1036.071899 2547.825684,1049.747681 2547.812500,1063.495728 
	C2547.616211,1265.812866 2547.677490,1468.130127 2547.677490,1670.447388 
	C2547.677490,1674.406494 2547.677490,1678.365601 2547.677490,1682.997192 
	C2426.583984,1682.997192 2306.093018,1682.997192 2184.101074,1682.997192 
	C2188.135254,1675.693115 2191.694824,1668.633057 2195.813477,1661.915527 
	C2204.958496,1646.999634 2214.454590,1632.299561 2223.677979,1617.431030 
	C2237.853516,1594.579590 2251.842529,1571.612305 2266.053711,1548.783203 
	C2281.293213,1524.302002 2296.791504,1499.981445 2311.999756,1475.480835 
	C2322.764160,1458.139526 2333.117188,1440.542847 2343.864746,1423.190918 
	C2356.988525,1402.002686 2370.425049,1381.008179 2383.551514,1359.821655 
	C2393.108398,1344.396484 2402.257812,1328.718872 2411.812256,1313.291870 
	C2424.948242,1292.081909 2438.447754,1271.096436 2451.500977,1249.836304 
	C2461.323242,1233.837891 2470.643555,1217.531982 2480.286133,1201.421997 
	C2482.784180,1197.248413 2485.653320,1193.296997 2488.845215,1188.683350 
z"/>
<path fill="#010101" opacity="1.000000" stroke="none" 
	d="
M1340.259521,1022.136353 
	C1334.477905,1003.922974 1328.742676,986.548767 1322.695557,968.229370 
	C1424.645874,968.229370 1525.098267,968.229370 1626.249268,968.229370 
	C1575.817505,1125.561157 1525.502319,1282.529053 1474.441162,1441.824463 
	C1471.879028,1435.218140 1469.816650,1430.614868 1468.285889,1425.841064 
	C1455.879517,1387.150879 1443.646118,1348.405029 1431.212769,1309.723511 
	C1420.993164,1277.928955 1410.477417,1246.229736 1400.269043,1214.431763 
	C1390.919312,1185.308594 1381.704224,1156.141235 1372.613647,1126.936157 
	C1362.390137,1094.091064 1352.376953,1061.180542 1342.252441,1028.304565 
	C1341.696533,1026.499634 1340.958984,1024.750488 1340.259521,1022.136353 
z"/>
<path fill="#050505" opacity="1.000000" stroke="none" 
	d="
M702.000122,1918.304321 
	C784.285034,1918.304321 865.569946,1918.304321 947.606323,1918.304321 
	C947.606323,1946.132446 947.606323,1973.500122 947.606323,2002.108887 
	C943.870789,1998.333130 940.842346,1995.085938 937.618164,1992.046509 
	C925.886353,1980.986450 912.427612,1976.505859 896.616089,1981.765381 
	C885.645203,1985.414795 878.872437,1993.634155 873.333923,2003.281616 
	C865.868225,2016.286011 861.288879,2030.459473 860.320435,2045.125854 
	C858.972229,2065.544434 857.855469,2086.207031 863.857239,2106.316162 
	C867.835449,2119.645508 872.801147,2132.538818 883.070190,2142.405273 
	C887.247498,2146.418945 892.380005,2149.438477 897.519836,2153.236816 
	C864.776245,2153.236816 832.364075,2153.236816 798.469910,2153.236816 
	C807.226746,2149.998535 814.781982,2147.097412 822.412231,2144.409424 
	C833.049133,2140.661865 834.296753,2139.112061 834.309082,2128.545654 
	C834.319885,2119.245361 834.311279,2109.944824 834.311279,2098.943359 
	C831.036804,2100.289062 828.652405,2100.833984 826.768799,2102.115479 
	C816.704102,2108.962402 805.955933,2114.565674 794.018188,2116.792480 
	C787.024536,2118.097168 779.425476,2118.333984 772.456909,2117.072754 
	C762.614258,2115.291260 753.563782,2103.292969 752.493835,2093.005859 
	C752.150818,2089.707520 751.870361,2086.402832 751.458984,2082.008789 
	C780.909973,2082.008789 810.013184,2082.008789 840.178650,2082.008789 
	C839.584045,2067.594971 840.647522,2054.499512 837.137878,2041.016235 
	C834.306213,2030.138062 831.539978,2019.466675 826.132568,2009.687256 
	C818.403931,1995.710083 807.022766,1986.452148 791.319824,1981.789795 
	C777.050354,1977.552979 763.560486,1979.532104 750.428589,1984.530518 
	C739.324707,1988.757080 731.196411,1997.374878 725.139954,2007.460693 
	C715.955688,2022.754761 711.186096,2039.464600 711.753052,2057.391846 
	C712.170532,2070.592285 711.866211,2084.012207 714.204285,2096.913818 
	C718.774292,2122.130371 730.967346,2142.216309 757.113281,2150.708984 
	C758.535522,2151.170898 759.777344,2152.188721 761.751038,2153.318359 
	C726.065002,2153.318359 691.018250,2153.318359 655.173279,2153.318359 
	C657.223389,2152.128418 658.720581,2151.032715 660.383667,2150.329346 
	C677.165344,2143.230225 687.661438,2132.284424 690.626038,2112.846191 
	C692.729370,2099.055176 691.311584,2086.685791 687.338562,2073.989746 
	C683.638062,2062.165039 674.469666,2055.643066 663.559937,2052.172852 
	C654.522827,2049.298584 645.415466,2045.876709 635.589844,2045.901489 
	C633.148560,2045.907593 630.669800,2044.725830 628.267151,2043.915405 
	C619.408752,2040.927734 617.172974,2036.908569 618.406738,2026.413452 
	C619.170837,2019.913086 623.032532,2017.130737 631.545166,2015.920288 
	C647.701111,2013.623047 662.016541,2019.344727 676.267456,2025.592041 
	C678.327148,2026.494995 680.391968,2027.386230 683.434265,2028.708984 
	C683.781860,2025.976685 684.255493,2023.898438 684.274902,2021.815918 
	C684.358765,2012.817749 684.272339,2003.817871 684.325500,1994.819214 
	C684.349731,1990.710938 682.806824,1989.077759 678.464539,1987.605957 
	C662.084229,1982.054688 645.452271,1978.869263 628.187073,1979.748291 
	C610.051514,1980.671753 595.010071,1986.950195 587.631958,2005.160278 
	C586.550964,2007.828125 585.705017,2010.651489 585.203674,2013.483276 
	C582.946777,2026.232910 582.973022,2038.885010 585.497925,2051.719971 
	C588.996582,2069.505127 601.732178,2077.191162 617.101746,2081.938721 
	C625.216980,2084.445557 633.847168,2085.235352 642.089600,2087.393066 
	C651.893677,2089.959961 656.050964,2094.683105 655.647949,2101.541992 
	C655.157288,2109.892090 647.737305,2117.097656 638.577820,2117.707764 
	C621.446533,2118.849365 605.164062,2116.390137 590.830078,2105.946289 
	C589.673523,2105.103516 587.870911,2105.147461 586.024536,2104.695312 
	C586.024536,2117.356201 586.024536,2129.897461 586.024536,2143.742432 
	C594.877014,2146.713623 604.208618,2149.845703 615.250183,2153.551758 
	C576.648682,2153.551758 540.000427,2153.551758 503.352112,2153.551758 
	C503.217224,2153.140625 503.082306,2152.729492 502.947418,2152.318359 
	C504.798706,2151.625488 506.644165,2150.916748 508.502167,2150.242432 
	C528.203186,2143.091064 540.210754,2128.293457 545.931274,2109.072754 
	C550.017456,2095.343018 552.999878,2080.781006 553.301575,2066.523193 
	C554.231995,2022.547241 553.643433,1978.539307 553.627075,1934.543823 
	C553.626465,1932.920288 553.439758,1931.296753 553.299866,1929.026489 
	C539.578613,1929.026489 526.142212,1929.026489 511.688690,1929.026489 
	C511.688690,1932.438110 511.688690,1935.670532 511.688690,1938.902954 
	C511.688690,1977.565552 511.672089,2016.228271 511.697815,2054.890869 
	C511.706635,2068.131348 511.168976,2081.365723 506.697815,2093.940918 
	C501.739136,2107.886719 494.982727,2110.966064 480.865631,2111.863037 
	C473.259521,2112.346191 462.957397,2103.879150 460.464203,2093.839600 
	C458.369202,2085.403076 457.809265,2076.418701 457.757690,2067.669678 
	C457.502411,2024.342407 457.641388,1981.012695 457.641388,1937.683838 
	C457.641388,1935.053223 457.641357,1932.422607 457.641357,1928.772705 
	C443.682343,1928.772705 430.201294,1928.772705 416.197601,1928.772705 
	C416.197601,1924.970459 416.197601,1922.180908 416.197601,1918.304321 
	C511.222260,1918.304321 606.111206,1918.304321 702.000122,1918.304321 
z"/>
<path fill="#040404" opacity="1.000000" stroke="none" 
	d="
M617.704834,1875.800049 
	C536.442688,1875.726318 455.180573,1875.653076 373.918457,1875.561401 
	C373.632416,1875.561035 373.346771,1875.292969 372.313995,1874.776001 
	C372.144958,1873.729248 371.681854,1872.197754 371.681274,1870.666138 
	C371.651337,1792.066528 371.658966,1713.466797 371.678314,1634.867188 
	C371.678711,1633.205200 371.863251,1631.543335 372.398621,1629.119629 
	C372.835388,1628.358032 373.713257,1628.416748 373.713257,1628.416748 
	C376.663025,1643.517334 378.784576,1658.839478 382.750061,1673.668457 
	C389.256287,1697.998535 398.146820,1721.502563 409.605530,1744.061646 
	C427.449127,1779.191162 452.029297,1808.588745 484.257538,1831.023071 
	C508.592926,1847.963013 535.778809,1859.541016 564.815796,1865.811646 
	C581.760010,1869.470947 599.097290,1871.310669 617.144775,1874.451538 
	C618.031799,1874.934204 617.704834,1875.799927 617.704834,1875.800049 
z"/>
<path fill="#050505" opacity="1.000000" stroke="none" 
	d="
M2249.912598,2115.802734 
	C2241.012451,2114.904541 2235.298340,2110.328369 2232.124512,2103.087646 
	C2228.810059,2095.526855 2225.478516,2087.979736 2226.161133,2079.167969 
	C2226.852539,2070.246338 2226.280762,2061.232910 2226.439697,2052.262695 
	C2226.605469,2042.903687 2228.875977,2034.219849 2234.412354,2026.397949 
	C2241.281494,2016.693115 2255.284912,2015.125488 2264.280029,2023.298584 
	C2271.041748,2029.442139 2273.077637,2037.663940 2274.709717,2046.132080 
	C2277.889160,2062.631592 2277.334717,2079.105469 2272.883301,2095.184326 
	C2269.854736,2106.122803 2263.197266,2114.360840 2249.912598,2115.802734 
z"/>
<path fill="#050505" opacity="1.000000" stroke="none" 
	d="
M948.357544,2054.450928 
	C947.967957,2067.962891 949.895752,2080.722900 945.836548,2092.990479 
	C944.293335,2097.654053 942.524902,2102.500488 939.703369,2106.435059 
	C931.440430,2117.957031 913.755188,2116.681885 906.723633,2104.432861 
	C901.240601,2094.880859 899.886414,2084.484131 899.929626,2073.667236 
	C899.984131,2060.024902 899.316589,2046.496826 904.067688,2033.172119 
	C907.062378,2024.773560 912.793579,2019.870972 920.464966,2018.634888 
	C928.963684,2017.265259 936.565308,2020.838745 941.324463,2028.877563 
	C945.837646,2036.500610 947.434265,2044.891724 948.357544,2054.450928 
z"/>
<path fill="#050505" opacity="1.000000" stroke="none" 
	d="
M2609.755127,2099.832520 
	C2600.934814,2104.553467 2592.269775,2109.600098 2583.251709,2113.906250 
	C2573.867188,2118.386963 2563.376221,2118.950439 2553.507812,2117.640625 
	C2542.393066,2116.165039 2535.798096,2107.646240 2532.343750,2097.277100 
	C2530.853027,2092.802002 2530.566650,2087.926025 2529.577637,2082.355957 
	C2559.408936,2082.355957 2588.216064,2082.355957 2617.695312,2082.355957 
	C2617.695312,2105.460938 2617.695312,2128.933594 2617.695312,2153.056152 
	C2604.813232,2153.056152 2591.700684,2153.056152 2578.445312,2153.056152 
	C2590.024414,2148.533691 2601.629150,2144.001465 2613.616943,2139.319580 
	C2613.616943,2126.620605 2613.616943,2114.325928 2613.678223,2100.475098 
	C2612.411377,2099.223633 2611.083252,2099.528076 2609.755127,2099.832520 
z"/>
<path fill="#0B0B0B" opacity="1.000000" stroke="none" 
	d="
M1357.573364,2076.354492 
	C1368.653687,2076.333252 1378.861084,2076.333252 1389.748169,2076.333252 
	C1389.255981,2089.799316 1387.389648,2102.018311 1377.313110,2111.809082 
	C1372.018311,2116.953369 1365.868164,2118.452148 1359.129517,2117.810059 
	C1354.854126,2117.402344 1351.981445,2114.543701 1349.684692,2110.461182 
	C1342.886108,2098.376709 1345.545654,2084.149658 1357.573364,2076.354492 
z"/>
<path fill="#0B0B0B" opacity="1.000000" stroke="none" 
	d="
M759.760620,2023.498047 
	C765.466492,2014.367310 773.991821,2014.604126 781.855652,2016.124634 
	C788.871826,2017.481323 793.678284,2022.943604 796.002869,2029.964355 
	C797.808350,2035.417114 800.990173,2040.671387 799.032349,2047.266602 
	C782.761353,2047.266602 766.647156,2047.266602 750.473206,2047.266602 
	C751.939697,2038.730957 753.651672,2030.644043 759.760620,2023.498047 
z"/>
<path fill="#0B0B0B" opacity="1.000000" stroke="none" 
	d="
M2541.931641,2019.140137 
	C2545.522217,2017.606323 2548.530762,2016.192505 2551.661621,2015.828247 
	C2562.938965,2014.516113 2571.174805,2019.029297 2575.222168,2029.539307 
	C2577.275146,2034.870239 2577.619873,2040.859009 2578.878662,2047.273438 
	C2562.162109,2047.273438 2546.954834,2047.273438 2530.788086,2047.273438 
	C2528.943848,2035.904053 2535.310791,2027.870850 2541.931641,2019.140137 
z"/>
<path fill="#0B0B0B" opacity="1.000000" stroke="none" 
	d="
M1743.685059,2031.922241 
	C1750.239136,2018.033813 1755.383301,2014.317871 1767.926147,2015.816040 
	C1771.883789,2016.288818 1776.640869,2018.166504 1779.154053,2021.042358 
	C1785.473755,2028.274902 1789.072266,2036.935181 1787.547607,2047.359619 
	C1771.978638,2047.359619 1756.802856,2047.359619 1741.448120,2047.359619 
	C1738.479614,2041.847656 1741.811035,2037.286011 1743.685059,2031.922241 
z"/>
<path fill="#0B0B0B" opacity="1.000000" stroke="none" 
	d="
M417.544891,2088.609863 
	C418.919800,2108.246338 425.259155,2125.637939 439.934326,2139.484375 
	C447.519104,2146.640869 457.272949,2149.382324 467.152557,2153.462646 
	C449.955841,2153.462646 433.503632,2153.462646 415.606476,2153.462646 
	C415.776489,2132.137939 415.148102,2111.068115 416.457367,2089.352783 
	C416.832825,2088.731201 417.544891,2088.609863 417.544891,2088.609863 
z"/>
<path fill="#404040" opacity="1.000000" stroke="none" 
	d="
M701.249451,1872.198364 
	C702.194885,1873.048950 702.270020,1873.738159 702.259033,1874.940674 
	C689.442566,1875.453979 676.712219,1875.453979 663.309082,1875.453979 
	C676.151062,1874.270264 688.265076,1873.153687 701.249451,1872.198364 
z"/>
<path fill="#BFBFBF" opacity="1.000000" stroke="none" 
	d="
M618.604309,1876.026611 
	C617.704834,1875.799927 618.031799,1874.934204 618.007324,1874.472168 
	C624.190308,1874.010132 630.397644,1874.010132 636.605042,1874.010132 
	C636.609741,1874.757935 636.614380,1875.505615 636.619080,1876.253418 
	C630.914001,1876.253418 625.208862,1876.253418 618.604309,1876.026611 
z"/>
<path fill="#BFBFBF" opacity="1.000000" stroke="none" 
	d="
M417.687744,2087.788574 
	C417.544891,2088.609863 416.832825,2088.731201 416.623779,2088.436768 
	C412.522491,2085.546875 414.175293,2082.312988 415.013519,2078.494141 
	C419.414276,2080.735352 417.520905,2084.196289 417.687744,2087.788574 
z"/>
<path fill="#BFBFBF" opacity="1.000000" stroke="none" 
	d="
M2616.137695,2040.333496 
	C2616.285156,2039.584595 2617.165039,2039.645630 2617.570312,2039.819580 
	C2620.945801,2042.308594 2620.455566,2044.627563 2617.343506,2048.584473 
	C2616.718750,2045.121338 2616.354492,2043.101929 2616.137695,2040.333496 
z"/>
<path fill="#BFBFBF" opacity="1.000000" stroke="none" 
	d="
M373.860474,1627.697388 
	C373.713257,1628.416748 372.835388,1628.358032 372.431885,1628.182861 
	C371.420319,1627.002319 370.533936,1626.055908 370.304443,1624.970581 
	C370.157349,1624.274536 370.978668,1623.373779 372.000671,1621.238647 
	C372.933624,1623.906616 373.470642,1625.442261 373.860474,1627.697388 
z"/>
<path fill="#BFBFBF" opacity="1.000000" stroke="none" 
	d="
M1682.105591,1214.027100 
	C1681.484619,1214.156372 1681.154419,1214.754272 1680.816650,1214.704590 
	C1681.025513,1213.391357 1681.572266,1212.127686 1682.118896,1210.864014 
	C1682.321533,1211.875244 1682.524048,1212.886475 1682.105591,1214.027100 
z"/>
<path fill="#BFBFBF" opacity="1.000000" stroke="none" 
	d="
M1820.358887,2099.941162 
	C1821.081909,2099.524414 1822.412964,2099.218994 1823.586182,2099.551025 
	C1822.607910,2100.143311 1821.787476,2100.097656 1820.358887,2099.941162 
z"/>
<path fill="#BFBFBF" opacity="1.000000" stroke="none" 
	d="
M2610.362061,2099.942627 
	C2611.083252,2099.528076 2612.411377,2099.223633 2613.582031,2099.554932 
	C2612.605957,2100.144775 2611.787354,2100.098633 2610.362061,2099.942627 
z"/>
<path fill="#FCFCFC" opacity="1.000000" stroke="none" 
	d="
M1204.206055,2104.546875 
	C1202.976807,2106.084473 1201.988159,2107.424561 1200.970581,2107.447021 
	C1193.015869,2107.622070 1185.055786,2107.543945 1176.699219,2107.543945 
	C1165.511841,2071.154053 1154.459839,2035.204468 1143.407837,1999.254883 
	C1142.823608,1999.341431 1142.239502,1999.427979 1141.655273,1999.514526 
	C1141.655273,2049.208008 1141.655273,2098.901367 1141.655273,2149.121582 
	C1128.251831,2149.121582 1115.736816,2149.121582 1103.188843,2149.121582 
	C1101.307251,2142.248535 1100.787109,1941.256104 1102.713867,1928.786377 
	C1119.528687,1928.786377 1136.419922,1928.786377 1154.438110,1928.786377 
	C1165.849243,1965.926636 1177.390503,2003.490234 1188.931763,2041.053833 
	C1203.075562,2004.239502 1213.480957,1966.367310 1225.796143,1928.792969 
	C1243.010986,1928.792969 1259.877441,1928.792969 1276.758057,1928.792969 
	C1278.691162,1935.614868 1279.278687,2136.020752 1277.324219,2149.198730 
	C1265.228882,2149.198730 1253.061768,2149.198730 1240.204834,2149.198730 
	C1240.204834,2097.813965 1240.204834,2046.656494 1240.204834,1995.499023 
	C1239.518188,1995.351807 1238.831543,1995.204590 1238.145020,1995.057495 
	C1226.907715,2031.284668 1215.670410,2067.511963 1204.206055,2104.546875 
z"/>
<path fill="#FBFBFB" opacity="1.000000" stroke="none" 
	d="
M2140.466797,2004.442017 
	C2120.471680,2038.055786 2100.829834,2071.030029 2080.302246,2105.490967 
	C2110.343018,2105.490967 2138.452393,2105.490967 2167.107422,2105.490967 
	C2167.107422,2120.467041 2167.107422,2134.578125 2167.107422,2149.178711 
	C2120.819092,2149.178711 2074.980469,2149.178711 2027.835693,2149.178711 
	C2027.835693,2138.051270 2027.681641,2126.888916 2027.972900,2115.737793 
	C2028.027588,2113.645020 2029.723877,2111.517090 2030.894897,2109.543213 
	C2055.641602,2067.824707 2080.427246,2026.128906 2105.187012,1984.417969 
	C2107.366211,1980.746582 2109.418701,1976.999878 2112.321533,1971.897461 
	C2084.589844,1971.897461 2057.949463,1971.897461 2030.840698,1971.897461 
	C2030.840698,1956.891602 2030.840698,1943.099487 2030.840698,1928.820801 
	C2075.183105,1928.820801 2119.022461,1928.820801 2164.178467,1928.820801 
	C2164.178467,1940.281128 2164.376465,1951.782959 2164.016846,1963.267090 
	C2163.941650,1965.661133 2161.928223,1968.063232 2160.595215,1970.337036 
	C2154.042725,1981.515259 2147.418945,1992.651489 2140.466797,2004.442017 
z"/>
<path fill="#FCFCFC" opacity="1.000000" stroke="none" 
	d="
M2387.577148,2038.073975 
	C2386.136963,2046.315308 2383.943115,2053.770752 2383.828613,2061.258057 
	C2383.396240,2089.551270 2383.642090,2117.854980 2383.613525,2146.154785 
	C2383.612793,2146.801758 2383.371826,2147.448730 2382.960205,2149.512451 
	C2376.786865,2149.559570 2370.290283,2149.627930 2363.793701,2149.653564 
	C2357.519531,2149.678223 2351.245117,2149.658936 2344.330078,2149.658936 
	C2344.330078,2094.313232 2344.330078,2039.582886 2344.330078,1984.264404 
	C2356.973145,1984.264404 2369.759277,1984.264404 2383.250244,1984.264404 
	C2383.250244,1989.905884 2383.250244,1995.447388 2383.250244,2003.231567 
	C2386.238770,2000.146362 2388.081055,1998.676514 2389.387207,1996.827759 
	C2399.483154,1982.537109 2413.533447,1977.581909 2430.312256,1979.909424 
	C2442.123779,1981.547852 2449.914551,1989.176636 2455.354248,1999.245239 
	C2461.466064,2010.557617 2464.094238,2022.983521 2464.205322,2035.647705 
	C2464.529541,2072.600342 2464.296875,2109.558105 2464.258301,2146.513916 
	C2464.257568,2147.152588 2463.954834,2147.790527 2463.636963,2149.043457 
	C2451.648193,2149.043457 2439.479004,2149.043457 2426.304199,2149.043457 
	C2426.110352,2146.549316 2425.707031,2143.729980 2425.700928,2140.909668 
	C2425.649902,2117.270996 2425.808350,2093.631104 2425.608643,2069.994141 
	C2425.522217,2059.731201 2424.952148,2049.459229 2424.222412,2039.218262 
	C2423.510986,2029.230591 2417.955566,2021.929810 2410.566406,2020.435181 
	C2402.889160,2018.882202 2395.413574,2023.057983 2390.281982,2031.881958 
	C2389.285889,2033.594849 2388.604736,2035.491089 2387.577148,2038.073975 
z"/>
<path fill="#FAFAFA" opacity="1.000000" stroke="none" 
	d="
M1860.328735,2067.999512 
	C1860.328735,2052.111328 1860.328735,2037.222778 1860.328735,2021.639648 
	C1853.851196,2021.639648 1848.309814,2021.639648 1842.237305,2021.639648 
	C1842.237305,2008.816162 1842.237305,1996.700439 1842.237305,1983.846680 
	C1847.909058,1983.846680 1853.438110,1983.846680 1859.911865,1983.846680 
	C1859.911865,1968.022583 1859.911865,1952.882690 1859.911865,1937.043701 
	C1873.322632,1937.043701 1885.785767,1937.043701 1899.193726,1937.043701 
	C1899.193726,1952.031006 1899.193726,1967.200928 1899.193726,1983.406006 
	C1912.528320,1983.406006 1924.994873,1983.406006 1937.840088,1983.406006 
	C1937.840088,1996.569458 1937.840088,2008.685059 1937.840088,2021.522949 
	C1925.169434,2021.522949 1912.975952,2021.522949 1900.175537,2021.522949 
	C1899.980103,2024.745483 1899.696045,2027.291504 1899.691650,2029.838013 
	C1899.655518,2050.822510 1899.668335,2071.807129 1899.675659,2092.791504 
	C1899.676270,2094.788330 1899.594360,2096.800049 1899.799194,2098.779053 
	C1900.640625,2106.908936 1903.658325,2109.945801 1911.950195,2110.260254 
	C1919.516357,2110.546875 1927.102051,2110.320801 1935.159912,2110.320801 
	C1935.159912,2123.749023 1935.159912,2136.207764 1935.159912,2149.588135 
	C1919.200195,2149.060791 1903.668945,2151.369141 1888.253662,2148.077148 
	C1876.604492,2145.589111 1868.201782,2138.817871 1864.962769,2127.251953 
	C1862.662476,2119.038086 1861.092651,2110.465088 1860.510986,2101.962646 
	C1859.762573,2091.021973 1860.328735,2079.991455 1860.328735,2067.999512 
z"/>
<path fill="#FDFDFD" opacity="1.000000" stroke="none" 
	d="
M1502.320312,2137.780762 
	C1502.320312,2142.023438 1502.320312,2145.294922 1502.320312,2149.106445 
	C1489.450317,2149.106445 1477.287964,2149.106445 1464.399292,2149.106445 
	C1464.399292,2094.417480 1464.399292,2039.697632 1464.399292,1984.330933 
	C1476.493286,1984.330933 1488.917603,1984.330933 1502.221924,1984.330933 
	C1502.221924,1990.741821 1502.221924,1997.156860 1502.221924,2004.488647 
	C1524.914307,1979.223755 1528.902588,1977.316772 1551.661133,1980.711060 
	C1551.661133,1996.311890 1551.661133,2012.021484 1551.661133,2028.494263 
	C1549.094238,2027.436279 1546.998657,2026.647583 1544.965332,2025.722656 
	C1527.746948,2017.891113 1512.522949,2026.102295 1507.476807,2041.751221 
	C1504.769043,2050.148926 1502.806396,2059.129883 1502.547974,2067.907471 
	C1501.872559,2090.857178 1502.320312,2113.840088 1502.320312,2137.780762 
z"/>
</svg>